<svg version="1" xmlns="http://www.w3.org/2000/svg" width="750.667" height="750.667" viewBox="0 0 563.000000 563.000000"><path d="M0 281v281h562V0H0v281zm527 0v246H36V35h491v246z"/><path d="M188.6 158.2c-1.4 1.3-15.8 20.2-32.1 42.1-19.6 26.5-29.5 40.7-29.5 42.3 0 1.4 1.6 4.2 3.7 6.6 6.5 7.3 141.4 151.1 144.4 154.1 2 1.8 4 2.7 6.4 2.7 3.2 0 7.2-4.1 78.4-80.2 69.2-74 75.1-80.5 75.1-83.7 0-2.9-4.4-9.3-30.6-44.2-16.8-22.4-31.2-41-32-41.3-.9-.3-42-.6-91.4-.6h-89.9l-2.5 2.2zm46 28c-4.1 7.9-11.7 22.2-16.8 31.8l-9.3 17.5-29.4.3c-25.2.2-29.2 0-28.8-1.2.3-.8 10.8-15.2 23.4-32l22.8-30.5 22.8-.1h22.8l-7.5 14.2zm86 17.2c9 16.9 16.4 31.2 16.4 31.7s-23.5.9-55.5.9c-40.6 0-55.5-.3-55.5-1.1 0-.7 7.3-15 16.3-32l16.2-30.9 22.8.3 22.9.2 16.4 30.9zm68.9-.1c12.9 17.3 23.5 31.7 23.5 32 0 .4-13 .7-29 .7-28.9 0-29 0-30.4-2.3-1.7-2.7-32.6-60.7-32.6-61.3 0-.2 10.1-.4 22.5-.4H366l23.5 31.3zm-156 102.4c13.8 30.6 25.4 56.5 25.8 57.7 1.1 2.8-3-1.4-53.8-55.9-24.1-25.9-46.1-49.4-48.9-52.3l-5-5.2H180l28.5.1 25 55.6zM338 250.6c0 1.8-56.5 125.3-57 124.7-.4-.5-6.1-13-12.8-27.8-6.7-14.9-19.3-42.9-28.1-62.3L224.2 250h56.9c31.3 0 56.9.3 56.9.6zm19.3 56.8c-29.6 31.6-53.9 57.3-54 57.2-.2-.1 11.3-26 25.5-57.4l25.7-57.2H411l-53.7 57.4z"/></svg>