<svg xmlns="http://www.w3.org/2000/svg" viewBox="0 0 243.69 58.3">
	<defs>
		<style>
			.a,.c{fill:none;stroke-width:3px;}.a{stroke:#e3452e;stroke-miterlimit:10;}.b{fill:#fff;}.c{stroke:#fff;stroke-linecap:round;stroke-linejoin:round;}
		</style>
	</defs>
	<polyline class="a" points="56.29 12.95 56.29 1.5 1.5 1.5 1.5 56.8 56.29 56.8 56.29 45.84"/>
	<path class="b"
	      d="M98,179.23L83.44,163.73a0.67,0.67,0,0,1-.19-0.45,0.66,0.66,0,0,1,.15-0.46L89.22,155a0.63,0.63,0,0,1,.56-0.28h17.45a0.63,0.63,0,0,1,.56.29l5.82,7.76a0.66,0.66,0,0,1,.14.46,0.68,0.68,0,0,1-.19.45L99,179.23a0.73,0.73,0,0,1-1,0h0Zm0.52-2.72,5.68-12.56H92.83l5.68,12.56h0Zm-2-.95-5.24-11.62H85.62L96.5,175.56h0Zm4,0,10.88-11.62h-5.64l-5.24,11.62h0Zm-9.21-13,3.36-6.32H90.14l-4.74,6.32h5.9Zm12.79,0-3.36-6.32H96.28l-3.36,6.32h11.18Zm7.52,0-4.74-6.32h-4.52l3.36,6.32h5.9Z"
	      transform="translate(-69.61 -137.96)"/>
	<path class="b"
	      d="M121.1,175l1.52-3.57h6.51l1.52,3.57H134l-6.6-15.49h-3L117.78,175h3.32Zm4.77-11.53,2.24,5.34h-4.51l2.27-5.34h0Z"
	      transform="translate(-69.61 -137.96)"/>
	<path class="b"
	      d="M139.23,175v-6.09h3.57a7,7,0,0,0,2.22-.33,4.7,4.7,0,0,0,1.69-1,4.29,4.29,0,0,0,1.45-3.37,4.63,4.63,0,0,0-.36-1.87,4.21,4.21,0,0,0-1.09-1.47,4.69,4.69,0,0,0-1.69-1,7.06,7.06,0,0,0-2.22-.33h-6.73V175h3.17Zm0-12.63h3.35a2.86,2.86,0,0,1,1.78.5,1.89,1.89,0,0,1,0,2.84,2.85,2.85,0,0,1-1.78.5h-3.35v-3.83h0Z"
	      transform="translate(-69.61 -137.96)"/>
	<polygon class="b"
	         points="79.92 24.46 84.78 24.46 84.78 37.03 87.95 37.03 87.95 24.46 92.84 24.46 92.84 21.63 79.92 21.63 79.92 24.46 79.92 24.46"/>
	<path class="b"
	      d="M167,175.29a4.48,4.48,0,0,0,2.78-.91,7.12,7.12,0,0,0,2.06-2.74l5.68-12.06h-3.37l-3.41,7.57-3.89-7.57h-3.5l5.83,10.76a8.5,8.5,0,0,1-.61,1.05,2.86,2.86,0,0,1-.58.64,2,2,0,0,1-.67.33,3.11,3.11,0,0,1-.87.11,4.2,4.2,0,0,1-1-.1,3,3,0,0,1-.83-0.32v2.79a2.94,2.94,0,0,0,.94.33,7.47,7.47,0,0,0,1.39.11h0Z"
	      transform="translate(-69.61 -137.96)"/>
	<path class="b"
	      d="M182.55,175v-6.09h3.57a7,7,0,0,0,2.22-.33,4.7,4.7,0,0,0,1.69-1,4.29,4.29,0,0,0,1.45-3.37,4.63,4.63,0,0,0-.36-1.87,4.2,4.2,0,0,0-1.09-1.47,4.69,4.69,0,0,0-1.69-1,7.06,7.06,0,0,0-2.22-.33h-6.73V175h3.17Zm0-12.63h3.35a2.86,2.86,0,0,1,1.78.5,1.89,1.89,0,0,1,0,2.84,2.85,2.85,0,0,1-1.78.5h-3.35v-3.83h0Z"
	      transform="translate(-69.61 -137.96)"/>
	<path class="b"
	      d="M207.26,175a7.41,7.41,0,0,0,2.19-.3,4.84,4.84,0,0,0,1.7-.91,4,4,0,0,0,1.45-3.17,4.73,4.73,0,0,0-.23-1.52,3.67,3.67,0,0,0-.69-1.23,4.4,4.4,0,0,0-1-.89,3.61,3.61,0,0,0-1.19-.47,3.09,3.09,0,0,0,1.67-1.67,3.57,3.57,0,0,0,.27-1.39,3.71,3.71,0,0,0-.58-2.09,3.6,3.6,0,0,0-1.62-1.31,6.25,6.25,0,0,0-2.46-.45h-7.24V175h7.75Zm-4.58-6.76h4a2.92,2.92,0,0,1,1.84.53,1.83,1.83,0,0,1,.67,1.5,1.79,1.79,0,0,1-.67,1.49,3,3,0,0,1-1.84.51h-4v-4h0Zm0-6h3.57a2.42,2.42,0,0,1,1.55.45,1.55,1.55,0,0,1,.56,1.26,1.49,1.49,0,0,1-.56,1.23,2.47,2.47,0,0,1-1.55.44h-3.57v-3.38h0Z"
	      transform="translate(-69.61 -137.96)"/>
	<path class="b"
	      d="M219,170.89a4.65,4.65,0,0,1-1-1.61,6.11,6.11,0,0,1,0-4,4.65,4.65,0,0,1,1-1.61,4.52,4.52,0,0,1,1.53-1.07,4.79,4.79,0,0,1,1.88-.36,4.71,4.71,0,0,1,1.87.36,4.52,4.52,0,0,1,1.52,1.07,4.78,4.78,0,0,1,1,1.61,5.94,5.94,0,0,1,0,4,4.79,4.79,0,0,1-1,1.61,4.54,4.54,0,0,1-1.52,1.07,4.71,4.71,0,0,1-1.87.36,4.79,4.79,0,0,1-1.88-.36,4.54,4.54,0,0,1-1.53-1.07h0Zm-4.58-3.61a8.27,8.27,0,0,0,.56,3.08,7.9,7.9,0,0,0,1.7,2.59,7.48,7.48,0,0,0,2.57,1.75,8.81,8.81,0,0,0,6.29,0,7.49,7.49,0,0,0,2.56-1.75,8,8,0,0,0,1.71-2.59,8.61,8.61,0,0,0,0-6.19,7.81,7.81,0,0,0-1.71-2.57,7.52,7.52,0,0,0-2.56-1.75,8.84,8.84,0,0,0-6.29,0,7.51,7.51,0,0,0-2.57,1.75,7.72,7.72,0,0,0-1.7,2.57,8.29,8.29,0,0,0-.56,3.1h0Z"
	      transform="translate(-69.61 -137.96)"/>
	<path class="b"
	      d="M237.69,175.29a9.7,9.7,0,0,0,2.7-.35,6,6,0,0,0,2.07-1,4.92,4.92,0,0,0,1.32-1.57,4.11,4.11,0,0,0,.44-1.9,3.93,3.93,0,0,0-.35-1.67,3.71,3.71,0,0,0-.94-1.24,4.31,4.31,0,0,0-1.35-.79,3.68,3.68,0,0,0,1-.66,3.29,3.29,0,0,0,.77-1,3.23,3.23,0,0,0,.3-1.39,3.85,3.85,0,0,0-.4-1.76,4.05,4.05,0,0,0-1.21-1.4,5.4,5.4,0,0,0-1.85-.91,8.8,8.8,0,0,0-2.4-.3,12.54,12.54,0,0,0-2.74.28,9.08,9.08,0,0,0-2.34.86v2.92a10.41,10.41,0,0,1,2.37-.86,11.36,11.36,0,0,1,2.55-.28,4.44,4.44,0,0,1,2.11.43,1.34,1.34,0,0,1,.77,1.2,1.43,1.43,0,0,1-.62,1.27,3.31,3.31,0,0,1-1.86.43h-2.31v2.66h1.94a4.9,4.9,0,0,1,2.41.49,1.58,1.58,0,0,1,.87,1.42,1.86,1.86,0,0,1-1,1.65,5.37,5.37,0,0,1-2.74.59,9.08,9.08,0,0,1-1.8-.2,10.27,10.27,0,0,1-1.78-.54,7.74,7.74,0,0,1-1.54-.82v3.08a8.56,8.56,0,0,0,2.49,1.07,12.32,12.32,0,0,0,3.07.36h0Z"
	      transform="translate(-69.61 -137.96)"/>
	<polygon class="b"
	         points="180.44 37.03 180.44 30.28 187.39 30.28 187.39 37.03 190.53 37.03 190.53 21.63 187.39 21.63 187.39 27.39 180.44 27.39 180.44 21.63 177.27 21.63 177.27 37.03 180.44 37.03 180.44 37.03"/>
	<path class="b"
	      d="M265.89,175l4.53-6.23h2.68V175h3.17v-15.4h-7.13a7.05,7.05,0,0,0-2.19.32,4.6,4.6,0,0,0-1.68,1,4.14,4.14,0,0,0-1.07,1.45,4.53,4.53,0,0,0-.36,1.83,4.6,4.6,0,0,0,.38,1.88,4.12,4.12,0,0,0,1.1,1.46,4.81,4.81,0,0,0,1.73.92L262.23,175h3.65Zm3.43-8.89a2.63,2.63,0,0,1-1.68-.48,1.87,1.87,0,0,1,0-2.76,2.61,2.61,0,0,1,1.68-.5h3.78v3.74h-3.78Z"
	      transform="translate(-69.61 -137.96)"/>
	<polygon class="b"
	         points="213.23 37.03 213.23 29.92 219.86 37.03 223.9 37.03 216.25 28.69 222.78 21.63 218.91 21.63 213.23 27.7 213.23 21.63 210.06 21.63 210.06 37.03 213.23 37.03 213.23 37.03"/>
	<path class="c" d="M306.92,172.52l4.88-4.39m-4.88-4.38,4.88,4.38" transform="translate(-69.61 -137.96)"/>
</svg>