<svg xmlns="http://www.w3.org/2000/svg" viewBox="0 0 142.5 67.19">
    <defs>
        <style>
            .a{fill:#e5462e;}.b{fill:#fff;}.c{fill:none;stroke:#e5462e;stroke-miterlimit:10;stroke-width:1.7px;}
        </style>
    </defs>
    <path class="a"
          d="M12.72,58.45,12,58.26A35.32,35.32,0,0,1,1.26,53.53l-.5-.31V7.82l.44-.32C5,4.79,8.72,2.23,13.38.77L14.76.33V30L18,25.24C23.47,17,29.16,8.44,35.52.54L36,0l.67.19A38.64,38.64,0,0,1,50.75,7.55l1.14.94-1.26.78c-6.58,4.05-11.56,11.47-16,18-.65,1-1.28,1.91-1.91,2.83q-2.14,3.13-4.24,6.26C23.69,43.56,18.69,51,13.16,57.9ZM2.88,52a32.29,32.29,0,0,0,9.06,4c5.3-6.7,10.14-13.88,14.82-20.83q2.12-3.14,4.25-6.27c.63-.91,1.26-1.86,1.9-2.81,4.24-6.31,9-13.42,15.35-17.82A36.61,36.61,0,0,0,36.73,2.43c-6.13,7.67-11.65,16-17,24C18,29,16.31,31.56,14.58,34.11L12.64,37V3.27A42,42,0,0,0,2.88,8.91Z"/>
    <path class="a"
          d="M15.93,67.19,15.26,67A38.69,38.69,0,0,1,1.14,59.64L0,58.69l1.26-.78C7.87,53.85,12.8,46.48,17.16,40c.66-1,1.31-2,2-2.91q2.14-3.12,4.24-6.26c4.84-7.18,9.84-14.6,15.37-21.53l.44-.55.68.19a35.38,35.38,0,0,1,10.78,4.73l.5.31v45.4l-.44.32C46.94,62.4,43.18,65,38.51,66.42l-1.38.43V37.14l-3.2,4.8c-5.5,8.26-11.19,16.81-17.56,24.7ZM3.63,58.9a36.63,36.63,0,0,0,11.53,5.86c6.13-7.67,11.65-16,17-24,1.71-2.57,3.42-5.14,5.15-7.69l1.94-2.86V63.92A42.09,42.09,0,0,0,49,58.28V15.14a32.36,32.36,0,0,0-9.06-4C34.65,17.87,29.81,25,25.12,32Q23,35.13,20.88,38.27c-.64.94-1.29,1.91-2,2.89C14.72,47.43,10,54.5,3.63,58.9Z"/>
    <path class="b" d="M65.08,23.15V28.5l4.74-5.35h.78V30.8H69.15V25.64l-4.76,5.22h-.76V23.15Z"/>
    <path class="b" d="M77.12,23.15v1.2H73.78V30.8H72.3V23.15Z"/>
    <path class="b"
          d="M80.69,26.44a1.42,1.42,0,0,0,.92-.27,1,1,0,0,0,.33-.8q0-1.06-1.36-1.06h-1v2.13Zm.37-3.29a2.47,2.47,0,0,1,1.75.62,2.09,2.09,0,0,1,.67,1.6A2.06,2.06,0,0,1,82.79,27a2.57,2.57,0,0,1-1.79.61H79.58V30.8H78.1V23.15Z"/>
    <path class="b" d="M86.6,27.82h2.47l-1.29-3Zm1.93-4.67,3.38,7.65H90.35l-.79-1.86h-3.4l-.74,1.86H83.86L87,23.15Z"/>
    <path class="b"
          d="M71.85,41.12l-1.73-4.33-1.75,4.33Zm-4.33,2.06-1,2.4H62.87l5.24-11.85h4l5.22,11.85H73.63l-1-2.4Z"/>
    <path class="b"
          d="M82.44,36v2.86h.77a8.76,8.76,0,0,0,1.07-.05,1.91,1.91,0,0,0,.7-.21.91.91,0,0,0,.39-.42,1.73,1.73,0,0,0,.12-.7,1.83,1.83,0,0,0-.12-.71,1,1,0,0,0-.39-.45,1.81,1.81,0,0,0-.7-.24A6.94,6.94,0,0,0,83.2,36Zm2.34-2.27a5.86,5.86,0,0,1,1.47.17,4.42,4.42,0,0,1,1.13.45,3.38,3.38,0,0,1,.82.65A3.57,3.57,0,0,1,89,36.63a3.79,3.79,0,0,1,.09.83,3.69,3.69,0,0,1-.09.82,3.56,3.56,0,0,1-.3.83,3.5,3.5,0,0,1-.54.78,3.4,3.4,0,0,1-.82.64,4.38,4.38,0,0,1-1.13.44,6,6,0,0,1-1.47.16H82.44v4.45H78.87V33.73Z"/>
    <path class="b" d="M102.49,33.73v2.63H98.15v9.23H94.57V36.35H90.23V33.73Z"/>
    <path class="b"
          d="M102.94,33.73h3.71l3.06,6.67,2.44-6.67h3.73l-5,11.94a6.92,6.92,0,0,1-.67,1.26,3.62,3.62,0,0,1-.79.84,2.79,2.79,0,0,1-.93.46,4.09,4.09,0,0,1-1.11.14,5.29,5.29,0,0,1-.82-.06,6.56,6.56,0,0,1-.76-.17c-.24-.07-.46-.14-.66-.22l-.51-.22V45.2a5.29,5.29,0,0,0,1.05.41,4.07,4.07,0,0,0,1.05.15,1.41,1.41,0,0,0,.88-.26,1.49,1.49,0,0,0,.47-.92Z"/>
    <path class="b"
          d="M120.81,36v2.86h.77a8.77,8.77,0,0,0,1.07-.05,1.91,1.91,0,0,0,.7-.21.9.9,0,0,0,.39-.42,1.72,1.72,0,0,0,.12-.7,1.83,1.83,0,0,0-.12-.71,1,1,0,0,0-.39-.45,1.81,1.81,0,0,0-.71-.24,6.92,6.92,0,0,0-1.08-.07Zm2.34-2.27a5.89,5.89,0,0,1,1.47.17,4.42,4.42,0,0,1,1.12.45,3.36,3.36,0,0,1,.82.65,3.55,3.55,0,0,1,.54.79,3.69,3.69,0,0,1,.3.85,3.92,3.92,0,0,1,.09.83,3.82,3.82,0,0,1-.09.82,3.65,3.65,0,0,1-.3.83,3.48,3.48,0,0,1-.54.78,3.38,3.38,0,0,1-.82.64,4.38,4.38,0,0,1-1.12.44,6,6,0,0,1-1.47.16h-2.34v4.45h-3.58V33.73Z"/>
    <path class="b"
          d="M137.05,41.12l-1.74-4.33-1.75,4.33Zm-4.33,2.06-1,2.4h-3.66l5.24-11.85h4l5.23,11.85h-3.66l-1-2.4Z"/>
    <path class="c" d="M34.53,52.1a2,2,0,1,1-2-2A2,2,0,0,1,34.53,52.1Z"/>
</svg>