<svg xmlns="http://www.w3.org/2000/svg" viewBox="0 0 74.2 66.61">
	<defs>
		<style>.a{fill:#ffffff;}.b{fill:#e5462e;}</style>
	</defs>
	<path class="a" d="M10.78,33.3a2.41,2.41,0,1,1-2.41-2.41,2.41,2.41,0,0,1,2.41,2.41h0Z"
	      transform="translate(-0.01 0.1)"/>
	<path class="a"
	      d="M61,45.59a30.26,30.26,0,1,1,2.53-14.67c0.06,0.77.08,1.54,0.08,2.31a1.5,1.5,0,0,0,3,0,33.73,33.73,0,0,0-7.44-21A33.3,33.3,0,1,0,63.6,47a1.53,1.53,0,0,0-.54-2,1.5,1.5,0,0,0-2,.54H61Z"
	      transform="translate(-0.01 0.1)"/>
	<path class="b" d="M18.83,48.17a13.16,13.16,0,0,1-1.42-1.57h0L33.82,33.18,34.12,12A21.2,21.2,0,1,1,18.83,48.17Z"
	      transform="translate(-0.01 0.1)"/>
	<path class="a"
	      d="M63.94,38.13l-7.79-7.7a1.5,1.5,0,0,1,2.11-2.12l6.27,6.2c0.26-.31.62-0.79,0.82-1.07l0.13-.18a1,1,0,0,1,.69.55l5.57-5.5a1.5,1.5,0,0,1,2.11,2.12l-7.79,7.7A1.51,1.51,0,0,1,63.94,38.13Z"
	      transform="translate(-0.01 0.1)"/>
	<path class="a" d="M32,20.09q0.12,6.25.23,12.49c0,1.92,3,2,3,.11Q35.12,26.44,35,20.2c0-1.92-3-2-3-.11h0Z"
	      transform="translate(-0.01 0.1)"/>
	<path class="a"
	      d="M18.58,46.23L34.46,34A1.53,1.53,0,0,0,35,32a1.49,1.49,0,0,0-2-.53L17.13,43.7a1.53,1.53,0,0,0-.54,2,1.5,1.5,0,0,0,2,.54h0Z"
	      transform="translate(-0.01 0.1)"/>
	<path class="a" d="M35.69,8.15a2.41,2.41,0,1,1-2.41-2.41,2.41,2.41,0,0,1,2.41,2.41h0Z"
	      transform="translate(-0.01 0.1)"/>
	<path class="a" d="M35.69,58.22a2.41,2.41,0,1,1-2.41-2.41,2.41,2.41,0,0,1,2.41,2.41h0Z"
	      transform="translate(-0.01 0.1)"/>
</svg>