<svg xmlns="http://www.w3.org/2000/svg" viewBox="0 0 131.37 395.99">
	<defs>
		<style>
			.a{fill:#ff9282;}.b{fill:#fff;}.c{fill:#273238;}.d{isolation:isolate;}.e{fill:#e5462e;}.f{fill:#303030;fill-opacity:0.1;}.g{fill:#373f44;}
		</style>
	</defs>
	<path class="a"
	      d="M22.68,180.19V373.77A22.22,22.22,0,0,0,44.9,396h23a22.22,22.22,0,0,0,22.21-22.21V180.19A22.22,22.22,0,0,0,67.91,158h-23A22.22,22.22,0,0,0,22.68,180.19Z"
	      transform="translate(0.03)"/>
	<path class="a"
	      d="M15.49,115.08v44.84a22.22,22.22,0,0,0,22.19,22.21H82.95a22.22,22.22,0,0,0,22.21-22.21V115.08A22.22,22.22,0,0,0,82.95,92.87H37.68A22.22,22.22,0,0,0,15.49,115.08Z"
	      transform="translate(0.03)"/>
	<path class="a" d="M0,152V128H29.23a12.07,12.07,0,0,1,12.06,12v26.56l-8.15,9.52-3,6A30.14,30.14,0,0,1,0,152Z"
	      transform="translate(0.03)"/>
	<path class="b" d="M14.15,99.92a1.33,1.33,0,1,1-1.33,1.33h0A1.33,1.33,0,0,1,14.15,99.92Z"
	      transform="translate(0.03)"/>
	<path class="b" d="M8.68,99.92a1.33,1.33,0,1,1-1.33,1.33h0A1.33,1.33,0,0,1,8.68,99.92Z" transform="translate(0.03)"/>
	<path class="a" d="M129.95,25.74a10.47,10.47,0,0,0-14.3-3.83L94.68,34V58.17L126.1,40A10.47,10.47,0,0,0,129.95,25.74Z"
	      transform="translate(0.03)"/>
	<path class="a" d="M101.33,129.71H19v37.78H91.21Z" transform="translate(0.03)"/>
	<path class="c"
	      d="M95.61,150.21h-67A9.56,9.56,0,0,1,19,140.65V9.56A9.56,9.56,0,0,1,28.56,0h67a9.56,9.56,0,0,1,9.56,9.56V140.65A9.56,9.56,0,0,1,95.61,150.21Z"
	      transform="translate(0.03)"/>
	<path class="b"
	      d="M62.09,133.82A6.14,6.14,0,1,0,68.23,140a6.14,6.14,0,0,0-6.14-6.14h0Zm0,1.52A4.62,4.62,0,1,1,57.47,140h0A4.62,4.62,0,0,1,62.09,135.34Z"
	      transform="translate(0.03)"/>
	<path class="b" d="M26.68,129.71h70.8V20.5H26.68V129.71Z" transform="translate(0.03)"/>
	<path class="b" d="M69.78,9.08a1.52,1.52,0,1,1,0,3H54.4a1.52,1.52,0,1,1,0-3H69.78Z" transform="translate(0.03)"/>
	<path class="a" d="M105.68,78.37a11,11,0,1,1,11-11A11,11,0,0,1,105.68,78.37Z" transform="translate(0.03)"/>
	<path class="a" d="M105.17,132.86a10.47,10.47,0,1,1,.05,0h-0.05Z" transform="translate(0.03)"/>
	<path class="a" d="M105.68,102.58a11,11,0,1,1,11-11,11,11,0,0,1-11,11h0Z" transform="translate(0.03)"/>
	<path class="a"
	      d="M44.39,135.93l-0.13-2.34-0.39-2.27-0.64-2.19L42.35,127l-1.1-2-1.3-1.88-1.5-1.76-1.68-1.62-1.85-1.47-2-1.32-2.15-1.15-2.28-1-2.39-.77-2.49-.56L21,113.15,18.37,113v55.58h26V135.93h0Z"
	      transform="translate(0.03)"/>
	<path class="a"
	      d="M22.85,72.78l-0.33-3.32-1-3.09L20,63.58l-2-2.43-2.43-2-2.79-1.52-3.09-1L6.37,56.3H0V153l22.85,14.44V72.78h0Z"
	      transform="translate(0.03)"/>
	<path class="a" d="M30.06,182.13V169.6a3.54,3.54,0,0,1,3.54-3.54H44.4v3.51a12.56,12.56,0,0,1-12.55,12.55H30.06Z"
	      transform="translate(0.03)"/>
	<g class="d">
		<path class="e"
		      d="M59.53,71.08v2.49c0,7.37-3.36,11.28-9.87,11.28-6,0-9.76-3.74-9.92-10.84h5.2c0.22,4.23,1.9,5.75,4.61,5.75,3.25,0,4.72-1.9,4.72-6.23V71.18c0-4.17-2-5.64-5.26-5.64H45.54V61.86l6.67-10.79H41V46.25H58.61v3.58L51.35,61.37C56.77,61.64,59.53,65.76,59.53,71.08Z"
		      transform="translate(0.03)"/>
		<path class="e"
		      d="M64.46,74.17V56.49c0-6.61,3.9-10.73,10-10.73s10.08,4.12,10.08,10.73V74.17c0,6.56-3.85,10.63-10.08,10.63S64.46,80.73,64.46,74.17Zm15,0V56.49c0-3.74-1.79-5.8-5-5.8s-4.93,2.06-4.93,5.8V74.17c0,3.63,1.79,5.69,4.93,5.69S79.48,77.8,79.48,74.17Z"
		      transform="translate(0.03)"/>
	</g>
	<g class="d">
		<path class="e"
		      d="M47.52,96.34c0,1.9-1.22,3.06-3.68,3.06H40.51V88.85h3.16c2.14,0,3.3,1.1,3.3,2.92a2.46,2.46,0,0,1-1.16,2A2.63,2.63,0,0,1,47.52,96.34Zm-5.12-3.16h1.18a1.29,1.29,0,0,0,1.5-1.36,1.31,1.31,0,0,0-1.52-1.34H42.39v2.7Zm3.2,3.1c0-1-.54-1.46-1.68-1.46H42.39v2.94h1.52A1.41,1.41,0,0,0,45.6,96.28Z"
		      transform="translate(0.03)"/>
		<path class="e"
		      d="M49.12,88.85H51v4.45c0,0.84,0,1.78,0,2.92l0.06,0c0.16-.54.76-2.12,1.1-3l2-4.42h2V99.4H54.26v-4c0-1,0-2.34.1-3.4l-0.06,0a27.36,27.36,0,0,1-1.18,3.24l-2,4.22h-2V88.85Z"
		      transform="translate(0.03)"/>
		<path class="e"
		      d="M57.31,97.62h0.8a7.86,7.86,0,0,0,.94-3.7c0.1-1.68.18-3.38,0.22-5.07H65.4v8.77h1.2v4.12H64.73V99.4H59.17v2.34H57.31V97.62Zm6.17,0v-7H61.09c0,1.24-.06,2.48-0.16,3.72a11.81,11.81,0,0,1-.62,3.26h3.16Z"
		      transform="translate(0.03)"/>
		<path class="e"
		      d="M75.19,96.1a3.53,3.53,0,0,1-3.84,3.52c-2.2,0-3.58-1.44-3.58-4V92.51c0-2.5,1.38-3.92,3.6-3.92S75,90,75,92.51v2.34H69.7v0.8c0,1.44.62,2.1,1.68,2.1a1.65,1.65,0,0,0,1.86-1.66h1.94Zm-5.49-3.6v0.9h3.42v-0.9c0-1.44-.64-2.08-1.74-2.08S69.7,91.05,69.7,92.49Z"
		      transform="translate(0.03)"/>
		<path class="e"
		      d="M76.85,95.64v-3c0-2.58,1.42-4,3.7-4s3.72,1.42,3.72,4v3c0,2.58-1.42,4-3.72,4S76.85,98.22,76.85,95.64Zm5.47,0v-3c0-1.48-.66-2.12-1.76-2.12s-1.74.64-1.74,2.12v3c0,1.48.66,2.12,1.74,2.12S82.31,97.12,82.31,95.64Z"
		      transform="translate(0.03)"/>
	</g>
	<g class="d">
		<path class="e"
		      d="M44,103.19l-1.36,4.41a1.41,1.41,0,0,1-1.52,1.25h-0.2v-0.73h0.22a0.8,0.8,0,0,0,.78-0.78l0.06-.21-1.4-4h0.85l0.91,2.72,0.81-2.72H44Z"
		      transform="translate(0.03)"/>
	</g>
	<g class="d">
		<path class="e" d="M48.05,108.78H47.24V104H45.66v4.82H44.86v-5.59h3.19v5.59Z" transform="translate(0.03)"/>
		<path class="e"
		      d="M52.35,105a1.6,1.6,0,0,1-1.72,1.82H50v2H49.16v-5.59h1.48A1.6,1.6,0,0,1,52.35,105Zm-0.82,0a0.86,0.86,0,0,0-.9-1H50v2.09h0.66A0.86,0.86,0,0,0,51.53,105Z"
		      transform="translate(0.03)"/>
	</g>
	<g class="d">
		<path class="e"
		      d="M55.14,107.65H53.67l-0.26,1.13H52.57l1.4-5.59h0.87l1.4,5.59H55.41ZM55,106.9l-0.35-1.5c-0.08-.37-0.17-0.9-0.21-1.2h0c0,0.29-.12.83-0.21,1.2l-0.34,1.5H55Z"
		      transform="translate(0.03)"/>
		<path class="e"
		      d="M59.86,106.41l-0.27.42v1.95H58.81v-1.95l-0.27-.42-1.32,2.37H56.31l1.78-3-1.64-2.54h0.93l1.05,1.72,0.38,0.69v-2.42h0.78v2.43l0.41-.73,1-1.7H62l-1.64,2.54,1.78,3H61.18Z"
		      transform="translate(0.03)"/>
	</g>
	<g class="d">
		<path class="e" d="M66.17,103.19v5.59H65.36v-2.45H63.78v2.45H63v-5.59h0.81v2.38h1.58v-2.38h0.81Z"
		      transform="translate(0.03)"/>
		<path class="e" d="M70.1,108v0.76H67.29v-5.59H70V104H68.09v1.62h1.78v0.74H68.09V108h2Z"
		      transform="translate(0.03)"/>
		<path class="e" d="M74.16,103.19v5.59H73.35v-2.45H71.77v2.45H71v-5.59h0.81v2.38h1.58v-2.38h0.81Z"
		      transform="translate(0.03)"/>
		<path class="e"
		      d="M75.28,103.19h0.79v2.44c0,0.4,0,1.13-.09,1.61l0,0c0.1-.27.25-0.66,0.4-1l1.36-3.08h0.82v5.59H77.79v-2.43c0-.42,0-1.17.07-1.64l0,0c-0.1.29-.26,0.72-0.4,1l-1.35,3.06H75.28v-5.59Z"
		      transform="translate(0.03)"/>
		<path class="e"
		      d="M79.7,103.19h0.79v2.44c0,0.4,0,1.13-.09,1.61l0,0c0.1-.27.25-0.66,0.4-1l1.36-3.08H83v5.59H82.21v-2.43c0-.42,0-1.17.07-1.64l0,0c-0.1.29-.26,0.72-0.4,1l-1.35,3.06H79.7v-5.59Zm0.71-1.5H81a0.41,0.41,0,1,0,.82,0h0.55A1,1,0,0,1,80.41,101.69Z"
		      transform="translate(0.03)"/>
	</g>
	<path class="f"
	      d="M44.28,150.25v2.2a4.1,4.1,0,0,0,4.1,4.1h52.75a4.1,4.1,0,0,0,4.1-4.1h0V141.37c-1,5.05-3.83,8-8.58,8.8Z"
	      transform="translate(0.03)"/>
	<g class="d">
		<path class="e"
		      d="M44.34,41.72a1.52,1.52,0,0,1-1.68,1.7H41.13V37.83H44v0.76h-2.1V40h0.73A1.55,1.55,0,0,1,44.34,41.72Zm-0.82,0a0.84,0.84,0,0,0-.9-0.93H41.93v1.87h0.68A0.83,0.83,0,0,0,43.51,41.72Z"
		      transform="translate(0.03)"/>
		<path class="e"
		      d="M45,41.65v-2a1.72,1.72,0,1,1,3.42,0v2A1.72,1.72,0,1,1,45,41.65Zm2.59,0v-2a0.9,0.9,0,1,0-1.76,0v2A0.9,0.9,0,1,0,47.56,41.65Z"
		      transform="translate(0.03)"/>
		<path class="e"
		      d="M52.42,37.83v5.59H51.61V38.59H50.43c-0.08,1.63-.15,2.91-0.26,3.57a1.28,1.28,0,0,1-1.39,1.34V42.77c0.35,0,.53-0.22.61-0.79s0.16-1.84.26-4.14h2.76Z"
		      transform="translate(0.03)"/>
		<path class="e" d="M56.35,42.66v0.76H53.54V37.83h2.74v0.76H54.34v1.62h1.78V41H54.34v1.71h2Z"
		      transform="translate(0.03)"/>
		<path class="e" d="M60,42.66v0.76H57.22V37.83H60v0.76H58v1.62H59.8V41H58v1.71h2Z" transform="translate(0.03)"/>
	</g>
	<path class="c" d="M16.68,260.8v94.51H96V260.8H16.68Z" transform="translate(0.03)"/>
	<path class="g" d="M9.44,208v64.58h93.87V208H9.44Z" transform="translate(0.03)"/>
</svg>