<svg xmlns="http://www.w3.org/2000/svg" viewBox="0 0 131.36 395.98">
	<defs>
		<style>
			.a{fill:#ff9282;}.b{fill:#fff;}.c{fill:#273238;}.d,.e,.f,.g{isolation:isolate;}.e{font-size:54.21px;}.e,.f,.g{fill:#e5462e;font-family:Akrobat;font-weight:700;}.f{font-size:20.02px;}.g{font-size:7.98px;}.h{fill:#303030;fill-opacity:0.1;}.i{fill:#373f44;}
		</style>
	</defs>
	<title>1</title>
	<path class="a"
	      d="M388,281.2V474.78A22.22,22.22,0,0,0,410.23,497h23a22.22,22.22,0,0,0,22.21-22.21V281.2A22.22,22.22,0,0,0,433.23,259h-23A22.22,22.22,0,0,0,388,281.2Z"
	      transform="translate(-365.32 -101.01)"/>
	<path class="a"
	      d="M380.81,216.09v44.84A22.22,22.22,0,0,0,403,283.14h45.27a22.22,22.22,0,0,0,22.21-22.21V216.09a22.22,22.22,0,0,0-22.21-22.21H403A22.22,22.22,0,0,0,380.81,216.09Z"
	      transform="translate(-365.32 -101.01)"/>
	<path class="a"
	      d="M365.32,253V229h29.23A12.07,12.07,0,0,1,406.61,241v26.56l-8.15,9.52-3,6A30.14,30.14,0,0,1,365.32,253Z"
	      transform="translate(-365.32 -101.01)"/>
	<path class="b" d="M379.47,200.93a1.33,1.33,0,1,1-1.33,1.33A1.33,1.33,0,0,1,379.47,200.93Z"
	      transform="translate(-365.32 -101.01)"/>
	<path class="b" d="M374,200.93a1.33,1.33,0,1,1-1.33,1.33A1.33,1.33,0,0,1,374,200.93Z"
	      transform="translate(-365.32 -101.01)"/>
	<path class="a"
	      d="M495.27,126.75a10.47,10.47,0,0,0-14.3-3.83L460,135v24.18l31.42-18.14A10.47,10.47,0,0,0,495.27,126.75Z"
	      transform="translate(-365.32 -101.01)"/>
	<path class="a" d="M466.65,230.72H384.32V268.5h72.21Z" transform="translate(-365.32 -101.01)"/>
	<path class="c"
	      d="M460.93,251.22H393.88a9.56,9.56,0,0,1-9.56-9.56V110.57a9.56,9.56,0,0,1,9.56-9.56h67.05a9.56,9.56,0,0,1,9.56,9.56V241.66A9.56,9.56,0,0,1,460.93,251.22Z"
	      transform="translate(-365.32 -101.01)"/>
	<path class="b"
	      d="M427.41,234.83a6.14,6.14,0,1,0,6.14,6.14A6.14,6.14,0,0,0,427.41,234.83Zm0,1.52a4.62,4.62,0,1,1-4.62,4.62A4.62,4.62,0,0,1,427.41,236.35Z"
	      transform="translate(-365.32 -101.01)"/>
	<path class="b" d="M392,230.72h70.8V121.51H392V230.72Z" transform="translate(-365.32 -101.01)"/>
	<path class="b" d="M435.1,110.09a1.52,1.52,0,1,1,0,3H419.72a1.52,1.52,0,1,1,0-3H435.1Z"
	      transform="translate(-365.32 -101.01)"/>
	<path class="a" d="M471,179.38a11,11,0,1,1,11-11A11,11,0,0,1,471,179.38Z" transform="translate(-365.32 -101.01)"/>
	<path class="a" d="M470.49,233.87A10.47,10.47,0,1,1,481,223.39,10.47,10.47,0,0,1,470.49,233.87Z"
	      transform="translate(-365.32 -101.01)"/>
	<path class="a" d="M471,203.59a11,11,0,1,1,11-11A11,11,0,0,1,471,203.59Z" transform="translate(-365.32 -101.01)"/>
	<path class="a"
	      d="M409.71,236.94l-0.13-2.34-0.39-2.27-0.64-2.19-0.88-2.1-1.1-2-1.3-1.88-1.5-1.76-1.68-1.62-1.85-1.47-2-1.32-2.15-1.15-2.28-1-2.39-.77-2.49-.56-2.58-.35-2.66-.12v55.58h26V236.94Z"
	      transform="translate(-365.32 -101.01)"/>
	<path class="a"
	      d="M388.17,173.79l-0.33-3.32-1-3.09-1.52-2.79-2-2.43-2.43-2-2.79-1.52-3.09-1-3.32-.33h-6.4v96.72l22.85,14.44V173.79Z"
	      transform="translate(-365.32 -101.01)"/>
	<path class="a" d="M395.38,283.14V270.61a3.54,3.54,0,0,1,3.54-3.54h10.8v3.51a12.56,12.56,0,0,1-12.55,12.55h-1.78Z"
	      transform="translate(-365.32 -101.01)"/>
	<g class="d">
		<text class="e" transform="translate(38.93 84.25)">30</text>
	</g>
	<g class="d">
		<text class="f" transform="translate(39.35 99.4)">видео</text>
	</g>
	<g class="d">
		<text class="g" transform="translate(40.57 108.78)">У</text>
		<text class="g" transform="translate(44.3 108.78)">ПР</text>
		<text class="g" transform="translate(52.51 108.78)">АЖ</text>
		<text class="g" transform="translate(62.42 108.78)">НЕНИЙ</text>
	</g>
	<path class="h"
	      d="M409.6,251.26v2.2a4.1,4.1,0,0,0,4.1,4.1h52.75a4.1,4.1,0,0,0,4.1-4.1l0-11.08c-1,5.05-3.83,8-8.58,8.8Z"
	      transform="translate(-365.32 -101.01)"/>
	<g class="d">
		<text class="g" transform="translate(40.57 43.42)">БОЛЕЕ</text>
	</g>
	<path class="c" d="M382,361.81v94.51h79.33V361.81H382Z" transform="translate(-365.32 -101.01)"/>
	<path class="i" d="M374.76,309v64.58h93.87V309H374.76Z" transform="translate(-365.32 -101.01)"/>
</svg>