<svg xmlns="http://www.w3.org/2000/svg" viewBox="0 0 64.5 77.4">
	<defs>
		<style>.a{fill:#e5462e;}</style>
	</defs>
	<path class="a" d="M369.54,264.39a1.29,1.29,0,1,0-1.29,1.29A1.29,1.29,0,0,0,369.54,264.39Z"
	      transform="translate(-336 -230.85)"/>
	<path class="a" d="M373.41,261.81a1.29,1.29,0,1,0-1.29,1.29A1.29,1.29,0,0,0,373.41,261.81Z"
	      transform="translate(-336 -230.85)"/>
	<path class="a" d="M365.67,261.81a1.29,1.29,0,1,0-1.29,1.29A1.29,1.29,0,0,0,365.67,261.81Z"
	      transform="translate(-336 -230.85)"/>
	<path class="a" d="M361.8,259.23a1.29,1.29,0,1,0-1.29,1.29A1.29,1.29,0,0,0,361.8,259.23Z"
	      transform="translate(-336 -230.85)"/>
	<path class="a" d="M377.28,259.23a1.29,1.29,0,1,0-1.29,1.29A1.29,1.29,0,0,0,377.28,259.23Z"
	      transform="translate(-336 -230.85)"/>
	<path class="a" d="M381.15,256.65a1.29,1.29,0,1,0-1.29,1.29A1.29,1.29,0,0,0,381.15,256.65Z"
	      transform="translate(-336 -230.85)"/>
	<path class="a" d="M357.93,256.65a1.29,1.29,0,1,0-1.29,1.29A1.29,1.29,0,0,0,357.93,256.65Z"
	      transform="translate(-336 -230.85)"/>
	<path class="a" d="M369.54,259.23a1.29,1.29,0,1,0-1.29,1.29A1.29,1.29,0,0,0,369.54,259.23Z"
	      transform="translate(-336 -230.85)"/>
	<path class="a" d="M369.54,274.71a1.29,1.29,0,1,0-1.29,1.29A1.29,1.29,0,0,0,369.54,274.71Z"
	      transform="translate(-336 -230.85)"/>
	<path class="a" d="M369.54,278.58a1.29,1.29,0,1,0-1.29,1.29A1.29,1.29,0,0,0,369.54,278.58Z"
	      transform="translate(-336 -230.85)"/>
	<path class="a" d="M369.54,282.45a1.29,1.29,0,1,0-1.29,1.29A1.29,1.29,0,0,0,369.54,282.45Z"
	      transform="translate(-336 -230.85)"/>
	<path class="a" d="M369.54,286.32a1.29,1.29,0,1,0-1.29,1.29A1.29,1.29,0,0,0,369.54,286.32Z"
	      transform="translate(-336 -230.85)"/>
	<path class="a" d="M369.54,290.19a1.29,1.29,0,1,0-1.29,1.29A1.29,1.29,0,0,0,369.54,290.19Z"
	      transform="translate(-336 -230.85)"/>
	<path class="a" d="M369.54,294.06a1.29,1.29,0,1,0-1.29,1.29A1.29,1.29,0,0,0,369.54,294.06Z"
	      transform="translate(-336 -230.85)"/>
	<path class="a"
	      d="M399.21,305.67h-3.87v-5.16h-6.45V287.33a10.38,10.38,0,0,0-4.63-8.65l-13.68-9.12,13.68-9.12a10.38,10.38,0,0,0,4.63-8.65V238.59h6.45v-5.16h3.87a1.29,1.29,0,0,0,0-2.58H337.29a1.29,1.29,0,1,0,0,2.58h3.87v5.16h6.45v13.19a10.38,10.38,0,0,0,4.63,8.65l13.68,9.12-13.68,9.12a10.38,10.38,0,0,0-4.63,8.65v13.19h-6.45v5.16h-3.87a1.29,1.29,0,1,0,0,2.58h61.92A1.29,1.29,0,1,0,399.21,305.67ZM343.74,236v-2.58h49V236h-49Zm9.93,22.27a7.81,7.81,0,0,1-3.48-6.5V238.59h36.12v13.19a7.81,7.81,0,0,1-3.48,6.5L368.25,268Zm-3.48,29a7.81,7.81,0,0,1,3.48-6.51l14.58-9.72,14.58,9.72a7.81,7.81,0,0,1,3.48,6.51v13.19H350.19V287.33Zm-6.45,15.77h49v2.58h-49v-2.58Z"
	      transform="translate(-336 -230.85)"/>
</svg>