<svg xmlns="http://www.w3.org/2000/svg" viewBox="0 0 78.98 79.08">
	<defs>
		<style>.a{fill:#e5462e;}</style>
	</defs>
	<path class="a"
	      d="M379,310.18a39.5,39.5,0,0,1,48.8-61.46,1.39,1.39,0,1,1-1.47,2.37A36.73,36.73,0,1,0,438,262.7a1.39,1.39,0,0,1,2.37-1.46A39.47,39.47,0,0,1,379,310.18Zm21.32-14L387,282.85a1.42,1.42,0,1,1,2-2l11.09,11.09a1.48,1.48,0,0,0,2.18-.1l31.41-37.62a1.43,1.43,0,1,1,2.19,1.84l-33.38,40-1.13.55A1.35,1.35,0,0,1,400.36,296.2Z"
	      transform="translate(-367.5 -242.67)"/>
</svg>