<svg xmlns="http://www.w3.org/2000/svg" viewBox="0 0 81.66 75.16">
	<defs>
		<style>.a{fill:#e5462e;}</style>
	</defs>
	<path class="a"
	      d="M363,332.25v-2.19h37.57l-1.54-1a11,11,0,0,1-3.23-7.8V315.9H353.19v5.32a8.85,8.85,0,0,0,5.4,8.14l1.9,0.38v2.35l-0.68-.07a11.05,11.05,0,0,1-8.81-10.8V314.8a1.1,1.1,0,0,1,1.1-1.1h44.83a1.1,1.1,0,0,1,1.1,1.1v6.42a8.84,8.84,0,0,0,17.68,0V265.58a8.45,8.45,0,0,1,2.49-6l0.44-.3H371.17a5.9,5.9,0,0,0-5.94,5.84l-0.34,48.05-2.19,0,0.34-48a8.09,8.09,0,0,1,8.13-8h51.47v0.31l1.54-.31a8.49,8.49,0,0,1,8.48,8.48v11.78a1.1,1.1,0,0,1-1.1,1.1H417.89v42.77a11,11,0,0,1-11,11L404.7,332v0.22H363Zm10.9-27.73a1.1,1.1,0,0,1,1.1-1.1h29.45a1.1,1.1,0,0,1,0,2.19H375A1.1,1.1,0,0,1,373.94,304.52Zm0-10.55a1.1,1.1,0,0,1,1.1-1.1h29.45a1.1,1.1,0,1,1,0,2.19H375A1.1,1.1,0,0,1,373.94,294Zm0-10.55a1.1,1.1,0,0,1,1.1-1.1h29.45a1.1,1.1,0,0,1,0,2.19H375A1.1,1.1,0,0,1,373.94,283.42Zm56.52-7.16V265.58a6.29,6.29,0,1,0-12.58,0v10.68h12.58Zm-56.52-3.39a1.1,1.1,0,0,1,1.1-1.1h13.63a1.1,1.1,0,0,1,0,2.19H375A1.09,1.09,0,0,1,373.94,272.87Z"
	      transform="translate(-351 -257.09)"/>
</svg>