<svg xmlns="http://www.w3.org/2000/svg" viewBox="0 0 39.06 39.06">
    <path d="M36.77,21.89a3.44,3.44,0,0,0-3.43-3.43h-5.1a27.8,27.8,0,0,0,1.25-5.27A5.37,5.37,0,0,0,24.18,7,1.14,1.14,0,0,0,23,8.16c0,2.76-1.59,6.94-3.44,7.87a50.14,50.14,0,0,1-7,2.43H1.14A1.14,1.14,0,0,0,0,19.61v16a1.14,1.14,0,0,0,1.14,1.14H4.58v1.15a1.14,1.14,0,0,0,1.14,1.14h4.73a3.44,3.44,0,0,0,3.14-2l8,2a1.14,1.14,0,0,0,.28,0h6.86A3.43,3.43,0,0,0,32,34.36a3.44,3.44,0,0,0,2.29-4.58,3.43,3.43,0,0,0,1.65-5.6A3.42,3.42,0,0,0,36.77,21.89ZM4.58,34.48H2.29V20.75H4.58Zm7,1.15a1.15,1.15,0,0,1-1.14,1.14H6.86v-16H11.6Zm14.88-10.3h6.87a1.14,1.14,0,0,1,0,2.29H26.47a1.14,1.14,0,0,0,0,2.29H31a1.14,1.14,0,1,1,0,2.29H26.47a1.14,1.14,0,1,0,0,2.29h2.29a1.14,1.14,0,1,1,0,2.29H22l-8.15-2V20.47a46.93,46.93,0,0,0,6.74-2.4c2.63-1.32,4.24-5.48,4.62-8.58a3.09,3.09,0,0,1,2,3.36,18.48,18.48,0,0,1-1.78,6.24,1.15,1.15,0,0,0,1,1.66h6.87a1.14,1.14,0,0,1,0,2.29H26.47a1.14,1.14,0,0,0,0,2.29Z"/>
    <path d="M25.33,0a1.14,1.14,0,0,0-1.14,1.14V3.59a1.14,1.14,0,0,0,2.29,0V1.14A1.14,1.14,0,0,0,25.33,0Z"/>
    <path d="M18.85,5.79,17.24,4.17a1.14,1.14,0,1,0-1.62,1.62l1.62,1.62a1.14,1.14,0,0,0,1.62-1.62Z"/>
    <path d="M15,12.74H12.74a1.14,1.14,0,0,0,0,2.29H15a1.14,1.14,0,0,0,0-2.29Z"/>
    <path d="M37.91,12.74H35.63a1.14,1.14,0,1,0,0,2.29h2.29a1.14,1.14,0,1,0,0-2.29Z"/>
    <path d="M35,4.17a1.14,1.14,0,0,0-1.62,0L31.8,5.79a1.14,1.14,0,0,0,1.62,1.62L35,5.79A1.14,1.14,0,0,0,35,4.17Z"/>
</svg>