<svg xmlns="http://www.w3.org/2000/svg" viewBox="0 0 42.01 42.01">
    <path d="M19.67,40.67v-2l-.3,0a17.72,17.72,0,0,1-16-16l0-.3h-2a1.34,1.34,0,1,1,0-2.67h2l0-.3a17.72,17.72,0,0,1,16-16l.3,0v-2a1.34,1.34,0,0,1,2.67,0v2l.3,0a17.72,17.72,0,0,1,16,16l0,.3h2a1.34,1.34,0,1,1,0,2.67h-2l0,.3a17.72,17.72,0,0,1-16,16l-.3,0v2a1.34,1.34,0,1,1-2.67,0Zm0-4.67V31.28l-.28,0a10.38,10.38,0,0,1-8.61-8.61l0-.28H6l0,.37A15.08,15.08,0,0,0,19.3,36Zm2.67,0,.37,0A15.08,15.08,0,0,0,36,22.71l0-.37H31.27l0,.28a10.38,10.38,0,0,1-8.61,8.61l-.28,0Zm6.34-15A7.68,7.68,0,1,0,21,28.68,7.69,7.69,0,0,0,28.68,21Zm-9.43,2.58L17.6,21.93A1.34,1.34,0,0,1,19.49,20l.71.7,2.32-2.32a1.34,1.34,0,0,1,1.89,1.89l-3.26,3.26A1.34,1.34,0,0,1,19.25,23.58Zm-8.52-3.91,0-.28a10.37,10.37,0,0,1,8.61-8.61l.28,0V6L19.3,6A15.08,15.08,0,0,0,6,19.3l0,.37Zm25.27,0,0-.37A15.08,15.08,0,0,0,22.71,6l-.37,0v4.73l.28,0a10.37,10.37,0,0,1,8.61,8.61l0,.28Z"/>
</svg>