<svg xmlns="http://www.w3.org/2000/svg" viewBox="0 0 37.34 37.34">
    <path d="M37.25,32a4.43,4.43,0,0,1-4.33,5.34H4.43A4.43,4.43,0,0,1,.09,32,19,19,0,0,1,12.74,17.86,9.92,9.92,0,0,1,18.67,0a10.09,10.09,0,0,1,5.55,1.71A1.46,1.46,0,0,1,22.6,4.13a7.14,7.14,0,0,0-3.93-1.21,7,7,0,0,0-.34,14H19a6.93,6.93,0,0,0,4.78-2.23,1.46,1.46,0,0,1,2.14,2,9.83,9.83,0,0,1-1.33,1.19,19,19,0,0,1,9.83,7.47A1.46,1.46,0,1,1,32,27a16,16,0,0,0-13-7.12H18.3A16.12,16.12,0,0,0,3,32.59a1.53,1.53,0,0,0,.31,1.28,1.48,1.48,0,0,0,1.17.55H32.92a1.48,1.48,0,0,0,1.17-.55,1.53,1.53,0,0,0,.31-1.28A1.46,1.46,0,0,1,37.25,32Zm.09-25.58V9.34a2.92,2.92,0,0,1-2.92,2.92H30a1.46,1.46,0,0,1-1.46-1.46V9.34H26.26v1.46a1.46,1.46,0,1,1-2.92,0V9.34H21.15v2.19a1.46,1.46,0,0,1-2.92,0V7.88a1.46,1.46,0,0,1,1.46-1.46h8.9V5A1.46,1.46,0,0,1,30,3.5h4.38A2.92,2.92,0,0,1,37.34,6.42Zm-2.92,0H31.51V9.34h2.92Z"/>
</svg>