<svg xmlns="http://www.w3.org/2000/svg" viewBox="0 0 43.27 43.27">
    <path d="M0,21.63A21.63,21.63,0,1,1,21.63,43.27,21.66,21.66,0,0,1,0,21.63ZM32.73,36.71l2.61-2.38-9.71-7.68-.18,0h-.24v9.57a1.45,1.45,0,0,1-1.45,1.45H19.51a1.45,1.45,0,0,1-1.45-1.45V26.68h-.22a1.45,1.45,0,0,1-1.45-1.45v-5.9L6.11,11.2,4.85,13.33A18.72,18.72,0,0,0,32.73,36.71ZM22.31,34.79V25.23a1.45,1.45,0,0,1,.17-.69l.2-.22-3.4-2.69v2.15h.22A1.45,1.45,0,0,1,21,25.23v9.57Zm14.85-2.73,1.26-2.12A18.72,18.72,0,0,0,10.53,6.56L7.92,8.94l8.85,7,.54-1.14a5.27,5.27,0,0,1,1.85-1.66l1-.4L19,12a3.73,3.73,0,1,1,4.09.8l-.13,0,.72.15a5.26,5.26,0,0,1,3.21,4.84v6.17ZM24,21.64V17.77a2.35,2.35,0,0,0-4.7,0v.16ZM22.47,9.31a.83.83,0,1,0-.83.83A.84.84,0,0,0,22.47,9.31Z"/>
</svg>