<svg xmlns="http://www.w3.org/2000/svg" viewBox="0 0 51.44 33.15">
    <path d="M39.89,5.21C37.45,2.19,35.69,0,31.75,0a8.29,8.29,0,0,0-6,2.43,8.28,8.28,0,0,0-6-2.43C15.76,0,14,2.17,11.63,5.18A55,55,0,0,1,0,16.43C7.61,24,13,33.15,25.72,33.15S43.82,24,51.44,16.43A55.76,55.76,0,0,1,39.89,5.21ZM14,7.06c2.45-3.07,3.33-4,5.7-4,2.64,0,3.62,1.23,6,3.64C28.13,4.24,29.11,3,31.75,3,34.13,3,35,4,37.54,7.1a58.49,58.49,0,0,0,7.47,8H36.27A21.3,21.3,0,0,1,31,14c-2.79-.92-3.68-1.78-3.77-2a.3.3,0,0,1,0,.09h-3a.34.34,0,0,1,0-.09c-.09.23-1,1.09-3.77,2a21.29,21.29,0,0,1-5.28,1.09H6.52A56.92,56.92,0,0,0,14,7.06Zm11.73,7.67a12.81,12.81,0,0,0,3.57,1.84,12.81,12.81,0,0,0-3.57,1.84,12.79,12.79,0,0,0-3.57-1.84A13.07,13.07,0,0,0,25.72,14.73Zm0,15.4C16,30.14,10.95,23.79,5.8,18.08h9.37a21.25,21.25,0,0,1,5.28,1.09c2.79.92,3.68,1.78,3.77,2a.32.32,0,0,1,0-.09h3a.29.29,0,0,1,0,.09c.09-.23,1-1.09,3.77-2a21.51,21.51,0,0,1,5.28-1.11h9.47C40.55,23.78,35.47,30.14,25.72,30.14Z"/>
</svg>