<svg xmlns="http://www.w3.org/2000/svg" viewBox="0 0 45.84 29.32">
    <path d="M45.84,7.73a4.36,4.36,0,1,0-7.53,3A7.15,7.15,0,0,1,26,7.47a4.36,4.36,0,1,0-6.12,0A7.15,7.15,0,0,1,7.53,10.72,4.36,4.36,0,1,0,3.43,12c.46,3.83,1.45,8.66,3.53,12v4A1.35,1.35,0,0,0,8.3,29.32H37.54A1.35,1.35,0,0,0,38.89,28v-4C41,20.65,42,15.82,42.42,12A4.37,4.37,0,0,0,45.84,7.73Zm-6,0a1.66,1.66,0,1,1,1.66,1.66A1.66,1.66,0,0,1,39.82,7.73ZM21.26,4.36A1.66,1.66,0,1,1,22.92,6,1.66,1.66,0,0,1,21.26,4.36ZM2.7,7.73A1.66,1.66,0,1,1,4.36,9.39,1.66,1.66,0,0,1,2.7,7.73Zm7,18.89V24.89H36.19v1.73ZM36.8,22.19H9a26.16,26.16,0,0,1-2.71-8.85,9.85,9.85,0,0,0,16-4.65,4.29,4.29,0,0,0,1.17,0A9.87,9.87,0,0,0,33,15.81a9.81,9.81,0,0,0,6.53-2.48A26.15,26.15,0,0,1,36.8,22.19Z"/>
</svg>